<svg width="34" height="38" viewBox="0 0 34 38" fill="none" xmlns="http://www.w3.org/2000/svg">
<path d="M33.1582 32.8535L28.6514 22.2522C30.2443 19.9597 31.1796 17.1775 31.1796 14.1807C31.1796 6.36143 24.8182 0 16.999 0C9.17992 0 2.81849 6.36143 2.81849 14.1806C2.81849 17.1775 3.75379 19.9595 5.34667 22.2521L0.839822 32.8535C0.624068 33.3609 0.661474 33.848 0.94254 34.1899C1.22361 34.5318 1.69437 34.6627 2.23387 34.5494L5.67583 33.8258C6.0827 33.7402 6.65433 33.9832 6.87513 34.3356L8.74225 37.3164C9.01686 37.7546 9.40413 38 9.8153 38C9.84246 38 9.86978 37.9989 9.89716 37.9968C10.3385 37.9619 10.7151 37.651 10.931 37.1434L14.7413 28.1807C15.4768 28.2988 16.2307 28.3611 16.999 28.3611C17.7673 28.3611 18.5212 28.2988 19.2567 28.1807L23.0671 37.1434C23.2829 37.6509 23.6597 37.9619 24.101 37.9968C24.1284 37.9989 24.1557 38 24.1828 38C24.5939 38 24.9813 37.7546 25.2558 37.3164L27.1229 34.3356C27.3437 33.9831 27.9153 33.7399 28.3223 33.8257L31.7641 34.5494C32.3038 34.6626 32.7745 34.5318 33.0555 34.1898C33.3365 33.848 33.374 33.3609 33.1582 32.8535ZM4.24757 32.8919L1.98539 33.3675C1.9655 33.3717 1.94753 33.3748 1.93143 33.377C1.93677 33.3617 1.94316 33.3447 1.95125 33.3259L6.19195 23.3507C6.64631 23.8853 7.13942 24.3861 7.66704 24.8484L4.24757 32.8919ZM5.67984 32.6098L8.64606 25.6323C9.23662 26.0642 9.86132 26.4521 10.5159 26.79L7.69517 33.4252C7.20667 32.878 6.40815 32.5532 5.67984 32.6098ZM9.81953 36.671C9.81159 36.6897 9.80387 36.7062 9.79645 36.7207C9.78687 36.7076 9.77663 36.6925 9.76587 36.6753L8.49109 34.6401L11.6127 27.2974C12.2327 27.553 12.8744 27.7659 13.5346 27.9324L9.81953 36.671ZM16.999 27.1535C9.84573 27.1535 4.02617 21.3339 4.02617 14.1807C4.02617 7.02739 9.84581 1.20769 16.999 1.20769C24.1522 1.20769 29.972 7.02731 29.972 14.1807C29.972 21.334 24.1523 27.1535 16.999 27.1535ZM24.2322 36.6752C24.2214 36.6925 24.2112 36.7075 24.2016 36.7206C24.1942 36.7062 24.1865 36.6896 24.1785 36.6709L20.4635 27.9322C21.1237 27.7659 21.7655 27.5528 22.3855 27.2972L25.507 34.64L24.2322 36.6752ZM26.3029 33.4252L23.4821 26.79C24.1367 26.4521 24.7614 26.0642 25.3519 25.6324L28.3183 32.6097C27.5898 32.5528 26.7915 32.8778 26.3029 33.4252ZM32.0125 33.3675L29.7504 32.8919L26.3308 24.8485C26.8586 24.3862 27.3516 23.8854 27.806 23.3507L32.0467 33.326C32.0548 33.3447 32.0611 33.3617 32.0664 33.3771C32.0505 33.3748 32.0325 33.3718 32.0125 33.3675Z" fill="#DA1919"/>
<path d="M16.9995 6.53851C12.7857 6.53851 9.35742 9.96674 9.35742 14.1806C9.35742 18.3944 12.7857 21.8226 16.9995 21.8226C21.2134 21.8226 24.6416 18.3944 24.6416 14.1806C24.6416 9.96674 21.2134 6.53851 16.9995 6.53851ZM16.9995 20.615C13.4515 20.615 10.5651 17.7285 10.5651 14.1807C10.5651 10.6327 13.4515 7.74627 16.9995 7.74627C20.5474 7.74627 23.434 10.6327 23.434 14.1807C23.434 17.7285 20.5475 20.615 16.9995 20.615Z" fill="#DA1919"/>
<path d="M16.9989 3.40436C11.0568 3.40436 6.22266 8.23851 6.22266 14.1806C6.22266 20.1226 11.0568 24.9568 16.9989 24.9568C22.941 24.9568 27.7753 20.1226 27.7753 14.1806C27.7753 8.23851 22.941 3.40436 16.9989 3.40436ZM16.9989 23.7491C11.7227 23.7491 7.43027 19.4567 7.43027 14.1805C7.43027 8.9044 11.7227 4.61189 16.9989 4.61189C22.2751 4.61189 26.5676 8.90433 26.5676 14.1805C26.5676 19.4567 22.2751 23.7491 16.9989 23.7491Z" fill="#DA1919"/>
</svg>
