<svg width="13" height="9" viewBox="0 0 13 9" fill="none" xmlns="http://www.w3.org/2000/svg">
<path d="M12.4966 1.50188C12.4254 1.23776 12.2863 0.996882 12.093 0.803234C11.8998 0.609587 11.6593 0.469918 11.3953 0.39813C10.4166 0.12938 6.50094 0.125005 6.50094 0.125005C6.50094 0.125005 2.58594 0.12063 1.60656 0.377505C1.34277 0.452596 1.1027 0.59424 0.909417 0.788839C0.716132 0.983437 0.576117 1.22446 0.502813 1.48875C0.244689 2.4675 0.242188 4.49751 0.242188 4.49751C0.242188 4.49751 0.239688 6.53751 0.495938 7.50626C0.639688 8.04188 1.06156 8.46501 1.59781 8.60938C2.58656 8.87813 6.49156 8.88251 6.49156 8.88251C6.49156 8.88251 10.4072 8.88688 11.3859 8.63063C11.65 8.55897 11.8908 8.41962 12.0845 8.22637C12.2782 8.03312 12.4181 7.79265 12.4903 7.52876C12.7491 6.55063 12.7509 4.52126 12.7509 4.52126C12.7509 4.52126 12.7634 2.48063 12.4966 1.50188ZM5.24844 6.37813L5.25156 2.62813L8.50594 4.50626L5.24844 6.37813Z" fill="#878787"/>
</svg>
