<svg width="9" height="16" viewBox="0 0 9 16" fill="none" xmlns="http://www.w3.org/2000/svg">
<path d="M1.74698 1.00334L8.415 7.84378C8.53211 7.96393 8.59766 8.12508 8.59766 8.29287C8.59766 8.46065 8.53211 8.6218 8.415 8.74195L1.74698 15.585C1.69243 15.641 1.6272 15.6855 1.55516 15.7159C1.48311 15.7463 1.4057 15.762 1.3275 15.762C1.2493 15.762 1.17189 15.7463 1.09984 15.7159C1.02779 15.6855 0.962567 15.641 0.908013 15.585C0.795779 15.4701 0.732945 15.3158 0.732945 15.1552C0.732945 14.9946 0.795779 14.8403 0.908013 14.7254L7.17842 8.29287L0.908013 1.86161C0.796164 1.74677 0.733573 1.59279 0.733573 1.43248C0.733573 1.27216 0.796164 1.11819 0.908013 1.00334C0.962567 0.94731 1.02779 0.902776 1.09984 0.872368C1.17189 0.84196 1.2493 0.826294 1.3275 0.826294C1.4057 0.826294 1.48311 0.84196 1.55516 0.872368C1.6272 0.902776 1.69243 0.94731 1.74698 1.00334Z" fill="#DA1919"/>
</svg>
