<svg width="64" height="64" viewBox="0 0 64 64" fill="none" xmlns="http://www.w3.org/2000/svg">
<path d="M43.5079 15.4409C43.2823 15.2085 42.9581 15.104 42.6348 15.1489L30.9571 16.979C30.8209 17.0005 30.6954 17.0486 30.5852 17.1171L21.4209 15.1596C21.086 15.0844 20.7344 15.1938 20.4942 15.4409L8.48733 27.8296C7.61823 28.727 7.33403 30.018 7.74713 31.1997L9.47563 36.1401C9.78323 37.019 10.3096 37.8149 10.9981 38.4419L12.6736 39.9681C12.3963 40.6388 11.7451 42.5269 12.2383 44.5512C13.5293 49.8491 16.8311 53.0883 22.629 54.7456C23.7618 55.0698 24.9532 55.1753 26.0245 55.1753C27.4057 55.1753 28.5759 55.001 29.1693 54.894C30.0976 55.5228 31.1769 55.8686 32.2881 55.8686C32.7647 55.8686 33.2452 55.8081 33.7198 55.6841C40.2281 53.9596 44.5078 49.7343 46.4637 43.1375C46.6979 43.0986 46.9232 42.9989 47.084 42.7993L52.2061 36.4165C52.2872 36.3149 52.3643 36.2114 52.4375 36.1059L55.5274 31.6528C56.42 30.3676 56.2774 28.6186 55.1885 27.4926L43.5079 15.4409ZM23.1788 52.8227C18.0752 51.3637 15.2998 48.6665 14.1817 44.0786C13.9402 43.0875 14.1016 42.1103 14.2868 41.4377L27.1256 53.133C25.9759 53.2159 24.5047 53.202 23.1788 52.8227ZM44.7227 41.977C44.4623 42.9506 44.1465 43.8585 43.7867 44.7157L33.5254 35.5942C33.1123 35.2251 32.4805 35.2622 32.1143 35.6772C31.7471 36.0893 31.7842 36.7221 32.1973 37.0883L42.6954 46.4204C42.7563 46.4747 42.8278 46.5053 42.8967 46.542C42.3752 47.4665 41.7814 48.3094 41.1129 49.071L30.0313 39.0981C29.6211 38.7299 28.9893 38.7622 28.6192 39.1723C28.25 39.5825 28.2832 40.2153 28.6934 40.5844L39.6877 50.4788C38.936 51.1209 38.1139 51.6883 37.2168 52.1783C37.1645 52.0875 37.1082 51.9976 37.0254 51.9243L26.5274 42.5932C26.1143 42.2251 25.4834 42.2622 25.1163 42.6762C24.7491 43.0883 24.7862 43.7212 25.1993 44.0874L35.3033 53.0682C34.6384 53.3278 33.9422 53.5559 33.211 53.7495C32.0206 54.063 30.7735 53.7524 29.8672 52.9253L12.3448 36.9633C11.9014 36.5591 11.5616 36.0464 11.3643 35.4799L9.63483 30.5395C9.47273 30.0776 9.58403 29.5717 9.92393 29.2212L21.545 17.2309L32.5928 19.5903C33.2657 19.7339 33.8829 20.0639 34.378 20.5434L37.8155 23.8755C38.4864 24.5258 38.8213 25.4311 38.7354 26.3608C38.6504 27.2885 38.1553 28.1176 37.378 28.6342L36.5254 29.2007C33.8711 26.8208 31.752 24.9253 31.752 24.9253C31.3409 24.5581 30.7129 24.5903 30.3438 24.9995C29.9747 25.4067 30.004 26.0356 30.4092 26.4077L35.6856 31.2466C35.793 31.3442 35.917 31.4155 36.0489 31.4594C38.7071 33.8432 41.71 36.5385 43.627 38.2719C44.67 39.2046 45.0899 40.6235 44.7227 41.977ZM53.8848 30.5122L50.794 34.9663C50.7452 35.0376 50.6934 35.1059 50.6426 35.1694L46.7589 40.0081C46.5412 38.7864 45.93 37.6487 44.9649 36.7846C43.209 35.1987 40.543 32.8032 38.0635 30.5796L38.4844 30.3012C39.7696 29.4467 40.587 28.0766 40.7276 26.5434C40.8692 25.0083 40.3155 23.5132 39.2081 22.4399L35.7696 19.1069C35.4871 18.8331 35.1717 18.6028 34.8428 18.3952L42.4327 17.2055L53.752 28.8842C54.1778 29.3247 54.2334 30.0092 53.8848 30.5122Z" fill="#DA1919"/>
<path d="M19.507 13.2387L14.6993 8.42435C14.5118 8.23685 14.257 8.13135 13.9923 8.13135C13.9913 8.13135 13.9913 8.13135 13.9913 8.13135C13.7267 8.13135 13.4718 8.23685 13.2843 8.42335L0.494322 21.1958C0.103622 21.5864 0.103622 22.2192 0.493322 22.6108L5.30092 27.4253C5.48842 27.6128 5.74332 27.7182 6.00792 27.7182C6.00892 27.7182 6.00892 27.7182 6.00892 27.7182C6.27362 27.7182 6.52842 27.6128 6.71592 27.4262L19.506 14.6538C19.8966 14.2632 19.8966 13.6303 19.507 13.2387ZM6.00992 25.3042L2.61542 21.9048L13.9904 10.5454L17.3849 13.9448L6.00992 25.3042Z" fill="#DA1919"/>
<path d="M63.506 21.1958L50.7159 8.42335C50.5284 8.23685 50.2736 8.13135 50.0089 8.13135H50.0079C49.7433 8.13135 49.4884 8.23685 49.3009 8.42435L44.4933 13.2387C44.1036 13.6303 44.1036 14.2632 44.4943 14.6538L57.2843 27.4262C57.4718 27.6128 57.7267 27.7182 57.9913 27.7182H57.9923C58.257 27.7182 58.5118 27.6128 58.6993 27.4253L63.507 22.6108C63.8966 22.2192 63.8966 21.5864 63.506 21.1958ZM57.9904 25.3042L46.6154 13.9448L50.0099 10.5454L61.3849 21.9048L57.9904 25.3042Z" fill="#DA1919"/>
</svg>
