<svg width="54" height="54" viewBox="0 0 54 54" fill="none" xmlns="http://www.w3.org/2000/svg">
<path d="M48.2383 10.3293H49.9068C50.4888 10.3293 50.9608 9.85728 50.9608 9.27527C50.9608 8.69325 50.4888 8.22127 49.9068 8.22127H45.9016C45.3196 8.22127 44.8476 8.69325 44.8476 9.27527V13.2805C44.8476 13.8625 45.3196 14.3344 45.9016 14.3344C46.4836 14.3344 46.9556 13.8625 46.9556 13.2805V12.1207C50.1537 16.4022 51.892 21.597 51.892 27C51.892 40.7256 40.7256 51.892 27 51.892C13.2744 51.892 2.10799 40.7256 2.10799 27C2.10799 13.2744 13.2744 2.10799 27 2.10799C28.0151 2.10799 29.0367 2.16965 30.0368 2.29118C30.6138 2.36095 31.1401 1.95 31.2103 1.37209C31.2806 0.794291 30.8691 0.268769 30.2912 0.198573C29.2071 0.0668233 28.0998 0 27 0C19.788 0 13.0077 2.80848 7.90813 7.90813C2.80848 13.0077 0 19.788 0 27C0 34.212 2.80848 40.9923 7.90813 46.0919C13.0077 51.1915 19.788 54 27 54C34.212 54 40.9923 51.1915 46.0919 46.0919C51.1915 40.9923 54 34.212 54 27C54 20.9141 51.9668 15.0716 48.2383 10.3293Z" fill="#DA1919"/>
<path d="M11.4323 15.9168C10.9404 15.6054 10.2893 15.752 9.97784 16.2435C7.57168 20.0438 6.50651 24.6142 6.97859 29.1127C7.45763 33.678 9.5124 37.9831 12.7644 41.2353C16.689 45.1598 21.8442 47.1221 26.9995 47.1221C32.1548 47.1221 37.3099 45.1599 41.2345 41.2353C49.0837 33.386 49.0837 20.6144 41.2345 12.7652C37.9875 9.51831 33.6894 7.46428 29.1317 6.98155C24.6415 6.50567 20.0761 7.56251 16.2774 9.95687C15.7848 10.2673 15.6374 10.9181 15.9477 11.4105C16.2581 11.9031 16.9089 12.0505 17.4013 11.7402C24.562 7.22703 33.7494 8.26131 39.7438 14.2558C46.7712 21.2831 46.7712 32.7173 39.7438 39.7446C32.7166 46.772 21.2823 46.772 14.2551 39.7446C8.34341 33.8329 7.29363 24.4236 11.759 17.3713C12.0702 16.8794 11.924 16.2283 11.4323 15.9168Z" fill="#DA1919"/>
<path d="M40.7024 28.071H42.0022C42.5842 28.071 43.0562 27.599 43.0562 27.017C43.0562 26.435 42.5842 25.963 42.0022 25.963H40.7024C40.1204 25.963 39.6484 26.435 39.6484 27.017C39.6484 27.599 40.1203 28.071 40.7024 28.071Z" fill="#DA1919"/>
<path d="M10.9434 26.9831C10.9434 27.5651 11.4153 28.0371 11.9974 28.0371H13.2971C13.8792 28.0371 14.3511 27.5651 14.3511 26.9831C14.3511 26.4011 13.8792 25.9291 13.2971 25.9291H11.9974C11.4153 25.9291 10.9434 26.401 10.9434 26.9831Z" fill="#DA1919"/>
<path d="M28.0709 13.298V11.9982C28.0709 11.4162 27.5989 10.9442 27.0169 10.9442C26.4349 10.9442 25.9629 11.4162 25.9629 11.9982V13.298C25.9629 13.88 26.4349 14.352 27.0169 14.352C27.5989 14.352 28.0709 13.88 28.0709 13.298Z" fill="#DA1919"/>
<path d="M25.9297 40.7019V42.0017C25.9297 42.5838 26.4017 43.0557 26.9837 43.0557C27.5657 43.0557 28.0377 42.5838 28.0377 42.0017V40.7019C28.0377 40.1199 27.5657 39.6479 26.9837 39.6479C26.4017 39.6479 25.9297 40.1198 25.9297 40.7019Z" fill="#DA1919"/>
<path d="M21.7173 20.2262C21.3056 19.8147 20.6385 19.8147 20.2267 20.2262C19.8151 20.6377 19.8151 21.3051 20.2267 21.7168L23.7988 25.2889C23.525 25.7991 23.3694 26.3816 23.3694 26.9999C23.3694 29.002 24.9982 30.6309 27.0004 30.6309C29.0025 30.6309 30.6314 29.002 30.6314 26.9999C30.6314 26.3816 30.4756 25.7991 30.202 25.2889L37.4095 18.0814C37.8211 17.6698 37.8211 17.0024 37.4095 16.5907C36.9978 16.1792 36.3307 16.1792 35.9189 16.5907L28.7113 23.7983C28.2012 23.5245 27.6186 23.3689 27.0004 23.3689C26.3821 23.3689 25.7996 23.5246 25.2894 23.7983L21.7173 20.2262ZM28.5234 26.9999C28.5234 27.8397 27.8402 28.5229 27.0004 28.5229C26.1605 28.5229 25.4773 27.8397 25.4773 26.9999C25.4773 26.16 26.1605 25.4768 27.0004 25.4768C27.8402 25.4768 28.5234 26.16 28.5234 26.9999Z" fill="#DA1919"/>
<path d="M14.2542 14.255C14.4513 14.0589 14.564 13.787 14.564 13.5098C14.564 13.2326 14.4513 12.9617 14.2542 12.7646C14.0582 12.5687 13.7872 12.4558 13.5091 12.4558C13.2319 12.4558 12.9599 12.5686 12.7639 12.7646C12.568 12.9607 12.4551 13.2326 12.4551 13.5098C12.4551 13.7881 12.5679 14.0589 12.7639 14.255C12.9599 14.4509 13.2319 14.5638 13.5091 14.5638C13.7872 14.5638 14.0582 14.4509 14.2542 14.255Z" fill="#DA1919"/>
<path d="M34.3001 3.14913C34.5784 3.14913 34.8504 3.0373 35.0463 2.84031C35.2424 2.64427 35.3552 2.37328 35.3552 2.09513C35.3552 1.81793 35.2425 1.546 35.0463 1.34996C34.8504 1.15402 34.5784 1.04114 34.3001 1.04114C34.0229 1.04114 33.751 1.15392 33.555 1.34996C33.359 1.546 33.2461 1.81793 33.2461 2.09513C33.2461 2.37339 33.3589 2.64427 33.555 2.84031C33.751 3.0373 34.0229 3.14913 34.3001 3.14913Z" fill="#DA1919"/>
</svg>
