<svg width="60" height="60" viewBox="0 0 60 60" fill="none" xmlns="http://www.w3.org/2000/svg">
<g clip-path="url(#clip0_45_475)">
<path d="M51.3496 11.886L39.8283 0.366094C39.5939 0.131719 39.2761 0 38.9446 0H12.1845C10.0334 0 8.2832 1.75008 8.2832 3.90129V56.0988C8.2832 58.2499 10.0333 60.0001 12.1846 60.0001H47.8145C49.9657 60.0001 51.7159 58.25 51.7159 56.0988V12.7699C51.7157 12.4384 51.5841 12.1204 51.3496 11.886ZM47.448 11.5201L47.4477 11.5199H40.1946V4.26762L40.1943 4.26715L47.448 11.5201ZM49.2157 56.0987C49.2157 56.8714 48.5871 57.4999 47.8145 57.4999H12.1845C11.4118 57.4999 10.7832 56.8714 10.7832 56.0987V3.90129C10.7833 3.12855 11.4119 2.50008 12.1845 2.50008H37.6945V12.7699C37.6945 13.4602 38.2543 14.02 38.9445 14.02H49.2157V56.0987Z" fill="#DA1919"/>
<path d="M36.173 18.9008C35.7244 19.4254 35.786 20.2146 36.3109 20.6632L42.5782 26.0213L36.3109 31.3795C35.7861 31.8281 35.7245 32.6171 36.173 33.1419C36.4202 33.431 36.7707 33.5797 37.1236 33.5797C37.4109 33.5797 37.6997 33.4811 37.9352 33.2798L45.3137 26.9716C45.5916 26.7342 45.7514 26.387 45.7514 26.0214C45.7514 25.6559 45.5916 25.3088 45.3138 25.0713L37.9353 18.7631C37.4108 18.3143 36.6214 18.376 36.173 18.9008Z" fill="#DA1919"/>
<path d="M22.876 33.5797C23.2287 33.5797 23.5795 33.4312 23.8266 33.142C24.2752 32.6173 24.2136 31.8282 23.6887 31.3796L17.4214 26.0214L23.6887 20.6633C24.2134 20.2147 24.2751 19.4256 23.8266 18.9009C23.3781 18.3761 22.5889 18.3142 22.0642 18.7629L14.6857 25.0711C14.4079 25.3086 14.248 25.6558 14.248 26.0213C14.248 26.3868 14.4079 26.7339 14.6857 26.9715L22.0642 33.2797C22.2998 33.4812 22.5885 33.5797 22.876 33.5797Z" fill="#DA1919"/>
<path d="M26.8399 35.7302C26.9683 35.772 27.0988 35.7919 27.2272 35.7919C27.7538 35.7919 28.2437 35.4563 28.4156 34.9286L33.9624 17.8885C34.1762 17.232 33.8172 16.5265 33.1607 16.313C32.5042 16.0992 31.7988 16.4582 31.5853 17.1147L26.0384 34.1548C25.8244 34.8111 26.1835 35.5165 26.8399 35.7302Z" fill="#DA1919"/>
<path d="M35.8827 40.5956C35.8827 39.9054 35.3229 39.3456 34.6326 39.3456H22C21.3098 39.3456 20.75 39.9053 20.75 40.5956C20.75 41.286 21.3098 41.8457 22 41.8457H34.6326C35.3229 41.8457 35.8827 41.2859 35.8827 40.5956Z" fill="#DA1919"/>
<path d="M17.2187 39.3456H17.0625C16.3723 39.3456 15.8125 39.9053 15.8125 40.5956C15.8125 41.286 16.3723 41.8457 17.0625 41.8457H17.2187C17.909 41.8457 18.4688 41.2859 18.4688 40.5956C18.4688 39.9054 17.909 39.3456 17.2187 39.3456Z" fill="#DA1919"/>
<path d="M42.9375 44.9706H24.3125C23.6223 44.9706 23.0625 45.5303 23.0625 46.2206C23.0625 46.911 23.6223 47.4707 24.3125 47.4707H42.9375C43.6277 47.4707 44.1875 46.9109 44.1875 46.2206C44.1875 45.5304 43.6279 44.9706 42.9375 44.9706Z" fill="#DA1919"/>
<path d="M35.4375 50.5956H24.3125C23.6223 50.5956 23.0625 51.1553 23.0625 51.8456C23.0625 52.536 23.6223 53.0957 24.3125 53.0957H35.4375C36.1277 53.0957 36.6875 52.5359 36.6875 51.8456C36.6875 51.1554 36.1278 50.5956 35.4375 50.5956Z" fill="#DA1919"/>
</g>
<defs>
<clipPath id="clip0_45_475">
<rect width="60" height="60" fill="white"/>
</clipPath>
</defs>
</svg>
