<svg width="9" height="16" viewBox="0 0 9 16" fill="none" xmlns="http://www.w3.org/2000/svg">
<path d="M7.25302 1.00334L0.585001 7.84378C0.467888 7.96393 0.402344 8.12508 0.402344 8.29287C0.402344 8.46065 0.467888 8.6218 0.585001 8.74195L7.25302 15.585C7.30757 15.641 7.3728 15.6855 7.44484 15.7159C7.51689 15.7463 7.5943 15.762 7.6725 15.762C7.7507 15.762 7.82811 15.7463 7.90016 15.7159C7.97221 15.6855 8.03743 15.641 8.09199 15.585C8.20422 15.4701 8.26705 15.3158 8.26705 15.1552C8.26705 14.9946 8.20422 14.8403 8.09199 14.7254L1.82158 8.29287L8.09199 1.86161C8.20384 1.74677 8.26643 1.59279 8.26643 1.43248C8.26643 1.27216 8.20384 1.11819 8.09199 1.00334C8.03743 0.94731 7.97221 0.902776 7.90016 0.872368C7.82811 0.84196 7.7507 0.826294 7.6725 0.826294C7.5943 0.826294 7.51689 0.84196 7.44484 0.872368C7.3728 0.902776 7.30757 0.94731 7.25302 1.00334Z" fill="#DA1919"/>
</svg>
