<svg width="27" height="27" viewBox="0 0 27 27" fill="none" xmlns="http://www.w3.org/2000/svg">
<g clip-path="url(#clip0_34_93)">
<path d="M9.11133 13.4264C9.40257 13.4264 9.63867 13.1903 9.63867 12.8991C9.63867 12.6078 9.40257 12.3717 9.11133 12.3717C8.82008 12.3717 8.58398 12.6078 8.58398 12.8991C8.58398 13.1903 8.82008 13.4264 9.11133 13.4264Z" fill="#DA1919"/>
<path d="M13.1011 8.25302C11.496 8.25302 10.0195 9.06044 9.1515 10.4129C8.99388 10.6584 9.06523 10.9853 9.31082 11.1429C9.5564 11.3005 9.88325 11.2292 10.0409 10.9836C10.7136 9.93546 11.8576 9.30971 13.1012 9.30971C15.1046 9.30971 16.7344 10.9396 16.7344 12.943C16.7344 14.9464 15.1045 16.5763 13.1012 16.5763C11.8238 16.5763 10.6633 15.9244 9.9971 14.8324C9.84507 14.5833 9.51991 14.5045 9.27084 14.6566C9.02173 14.8086 8.94299 15.1337 9.09497 15.3828C9.9547 16.7918 11.4524 17.633 13.1012 17.633C15.6872 17.633 17.7912 15.5291 17.7912 12.943C17.7912 10.3568 15.6872 8.25302 13.1011 8.25302Z" fill="#DA1919"/>
<path d="M25.227 18.0184L25.9235 16.394C26.0385 16.1259 25.9143 15.8153 25.6462 15.7002L23.1672 14.6367C23.3441 13.5963 23.3574 12.5453 23.207 11.5018L25.7106 10.5008C25.9815 10.3926 26.1133 10.0852 26.0051 9.81421L24.6081 6.31639C24.5561 6.18625 24.4545 6.08204 24.3257 6.02678C24.1969 5.97156 24.0514 5.96972 23.9213 6.02171L21.4173 7.02267C20.8068 6.1623 20.0724 5.40968 19.227 4.77803L20.2905 2.29925C20.4055 2.03109 20.2814 1.72044 20.0133 1.60537L16.5524 0.120105C16.4236 0.0648396 16.2782 0.0629939 16.148 0.11499C16.0179 0.166986 15.9137 0.268552 15.8585 0.39733L14.7949 2.87648C13.7537 2.69971 12.7023 2.68637 11.659 2.83656L10.658 0.332361C10.5497 0.0614118 10.2421 -0.0703714 9.97124 0.0378396L6.47342 1.43593C6.34328 1.48793 6.23918 1.5895 6.18391 1.71833C6.1287 1.8471 6.12685 1.9926 6.1789 2.12269L7.17985 4.62673C6.32139 5.23618 5.56892 5.97025 4.93564 6.81616L2.45638 5.75251C2.32761 5.69729 2.18216 5.69545 2.05196 5.74744C1.92181 5.79944 1.81766 5.90101 1.76245 6.02984L0.277714 9.49232C0.1627 9.76053 0.28689 10.0711 0.555044 10.1861L3.03398 11.2492C2.85706 12.2899 2.84387 13.341 2.99454 14.3846L0.490603 15.3855C0.219706 15.4939 0.0878174 15.8013 0.196028 16.0722L1.59307 19.5695C1.64506 19.6996 1.74663 19.8038 1.87546 19.8591C2.00424 19.9144 2.14973 19.9162 2.27988 19.8641L4.78381 18.8632C5.39443 19.7236 6.12875 20.4763 6.97424 21.1082L5.91075 23.5871C5.79574 23.8553 5.91982 24.166 6.18797 24.281L9.64935 25.7663C9.77813 25.8214 9.92362 25.8233 10.0538 25.7713C10.1839 25.7193 10.2881 25.6177 10.3433 25.4889L11.4065 23.0097C12.4485 23.1863 13.4997 23.1998 14.5422 23.0497L15.5432 25.5539C15.6258 25.7606 15.8242 25.8863 16.034 25.8863C16.0993 25.8863 16.1657 25.8741 16.23 25.8485L17.7361 25.2465C18.6916 26.3214 20.0837 27 21.6317 27C24.5055 27 26.8435 24.662 26.8435 21.7882C26.8435 20.307 26.2224 18.9682 25.227 18.0184ZM16.3284 24.6711L15.3658 22.2631C15.2721 22.0288 15.0259 21.8933 14.7777 21.9398C13.5902 22.1626 12.3859 22.1473 11.1984 21.8943C10.9515 21.8418 10.7021 21.971 10.6027 22.2028L9.58038 24.5867L7.09021 23.5182L8.11299 21.1342C8.21255 20.9021 8.13398 20.632 7.92552 20.4896C6.92509 19.806 6.08409 18.944 5.42586 17.9276C5.28869 17.7156 5.0207 17.6304 4.78624 17.7241L2.37834 18.6867L1.37332 16.1707L3.78149 15.208C4.0159 15.1143 4.15132 14.8679 4.10465 14.6197C3.881 13.4306 3.89614 12.2267 4.14963 11.0416C4.20242 10.7947 4.07322 10.545 3.84119 10.4454L1.45717 9.42308L2.52541 6.93196L4.90938 7.95469C5.14104 8.0541 5.41098 7.97584 5.55358 7.76775C6.23976 6.76611 7.1017 5.92532 8.11547 5.26861C8.32736 5.13135 8.41257 4.86346 8.31886 4.629L7.35625 2.2211L9.87279 1.21524L10.8354 3.6233C10.9291 3.85765 11.1753 3.99313 11.4234 3.94651C12.6123 3.7235 13.8164 3.73884 15.0026 3.99202C15.2495 4.04481 15.499 3.9155 15.5984 3.68363L16.6212 1.29967L19.111 2.36817L18.0881 4.75224C17.9886 4.98432 18.0671 5.25443 18.2757 5.39692C19.2761 6.08014 20.117 6.94198 20.7753 7.95838C20.9125 8.17032 21.1804 8.25554 21.4149 8.16183L23.8227 7.19927L24.8278 9.71576L22.4201 10.6784C22.1858 10.772 22.0504 11.0184 22.097 11.2665C22.3202 12.4557 22.3049 13.6594 22.0515 14.8442C21.9987 15.0911 22.1279 15.3408 22.3598 15.4403L24.7439 16.4632L24.3631 17.3514C23.5683 16.8603 22.6325 16.5764 21.6316 16.5764C18.7578 16.5764 16.4198 18.9144 16.4198 21.7882C16.4198 22.7238 16.6677 23.6025 17.1011 24.3623L16.3284 24.6711ZM21.6317 25.9433C19.3406 25.9433 17.4766 24.0793 17.4766 21.7882C17.4766 19.4971 19.3406 17.6331 21.6317 17.6331C23.9228 17.6331 25.7868 19.4971 25.7868 21.7882C25.7868 24.0793 23.9228 25.9433 21.6317 25.9433Z" fill="#DA1919"/>
<path d="M24.2909 19.9209C24.0707 19.7293 23.737 19.7526 23.5455 19.9728L21.2609 22.5992L19.9689 21.4416C19.7515 21.2468 19.4175 21.2652 19.2228 21.4825C19.028 21.6998 19.0464 22.0339 19.2637 22.2286L20.9551 23.7441C21.0523 23.8312 21.1779 23.8789 21.3077 23.8789C21.3186 23.8789 21.3295 23.8786 21.3405 23.8779C21.4817 23.8691 21.6135 23.8041 21.7063 23.6973L24.3428 20.6664C24.5343 20.4462 24.5111 20.1124 24.2909 19.9209Z" fill="#DA1919"/>
</g>
<defs>
<clipPath id="clip0_34_93">
<rect width="27" height="27" fill="white"/>
</clipPath>
</defs>
</svg>
